<svg width="109" height="42" viewBox="0 0 109 42" fill="none" xmlns="http://www.w3.org/2000/svg">
<path fill-rule="evenodd" clip-rule="evenodd" d="M0.0351562 41.22H108.461V0.0488892H0.0351562V41.22Z" fill="#FF323C"/>
<path fill-rule="evenodd" clip-rule="evenodd" d="M27.4323 24.0349H13.9796V20.6348C13.9796 16.9259 16.9973 13.909 20.7062 13.909C24.4149 13.909 27.4323 16.9259 27.4323 20.6348V24.0349ZM20.7062 7.59406C13.515 7.59406 7.66406 13.4438 7.66406 20.6348V33.6781H13.9796V30.3507H27.4323V33.6781H33.7481V20.6348C33.7481 13.4438 27.8978 7.59406 20.7062 7.59406Z" fill="white"/>
<path fill-rule="evenodd" clip-rule="evenodd" d="M60.9089 23.3615L47.4564 7.59406H41.1406V33.6781H47.4564V17.8946L60.9089 33.6781H67.225V7.59406H60.9089V23.3615Z" fill="white"/>
<path fill-rule="evenodd" clip-rule="evenodd" d="M88.0863 27.3623H84.6862V13.9095H88.0863C91.7952 13.9095 94.8124 16.9273 94.8124 20.6362C94.8124 24.3449 91.7952 27.3623 88.0863 27.3623ZM88.0863 7.59406H75.043V13.9095H78.3704V27.3623H75.043V33.6781H88.0863C95.2773 33.6781 101.127 27.8278 101.127 20.6362C101.127 13.445 95.2773 7.59406 88.0863 7.59406Z" fill="white"/>
</svg>
